<svg xmlns="http://www.w3.org/2000/svg" xmlns:xlink="http://www.w3.org/1999/xlink" width="300" zoomAndPan="magnify" viewBox="0 0 224.87999 225" height="300" preserveAspectRatio="xMidYMid meet" version="1.0"><defs><g/><clipPath id="7b78d4a0fc"><path d="M 45.558594 94.269531 L 73.734375 94.269531 L 73.734375 139.621094 L 45.558594 139.621094 Z M 45.558594 94.269531 " clip-rule="nonzero"/></clipPath><clipPath id="2ba458313f"><path d="M 100.8125 101.675781 L 127.230469 101.675781 L 127.230469 118.378906 L 100.8125 118.378906 Z M 100.8125 101.675781 " clip-rule="nonzero"/></clipPath><clipPath id="3e6687a4dd"><path d="M 103.296875 111.761719 L 123.242188 111.761719 L 123.242188 128.09375 L 103.296875 128.09375 Z M 103.296875 111.761719 " clip-rule="nonzero"/></clipPath></defs><g clip-path="url(#7b78d4a0fc)"><path fill="#28354d" d="M 56.09375 139.398438 C 56.066406 139.378906 56.039062 139.363281 56.011719 139.347656 C 54 138.234375 53.003906 136.578125 53.046875 134.230469 C 53.109375 131.070312 53.054688 127.90625 53.058594 124.746094 C 53.058594 124.425781 53.113281 124.105469 53.148438 123.746094 C 53.757812 123.960938 54.25 124.203125 54.765625 124.300781 C 55.519531 124.445312 55.996094 124.878906 56.429688 125.476562 C 57.929688 127.542969 59.511719 129.546875 60.980469 131.636719 C 62.699219 134.082031 64.332031 136.589844 65.992188 139.078125 C 66.074219 139.195312 66.148438 139.304688 66.234375 139.398438 L 73.636719 139.398438 C 72.019531 138.453125 70.730469 137.183594 69.628906 135.726562 C 66.933594 132.15625 64.28125 128.554688 61.617188 124.964844 C 61.511719 124.820312 61.457031 124.636719 61.347656 124.410156 C 61.71875 124.261719 62.035156 124.144531 62.34375 124.011719 C 65.066406 122.847656 67.082031 121 67.761719 118.039062 C 68.453125 115.03125 68.015625 112.226562 65.5 110.148438 C 64.523438 109.339844 63.355469 108.714844 62.195312 108.179688 C 60.144531 107.234375 58.011719 106.46875 55.953125 105.53125 C 54.441406 104.84375 53.289062 103.75 52.875 102.050781 C 52.238281 99.433594 53.320312 97.402344 55.085938 95.617188 C 55.460938 95.242188 55.898438 94.929688 56.304688 94.589844 C 56.269531 94.507812 56.230469 94.425781 56.191406 94.34375 C 55.140625 94.742188 54.027344 95.03125 53.046875 95.558594 C 48.457031 98.027344 47.9375 103.269531 50.015625 106.664062 C 51.019531 108.300781 52.589844 109.300781 54.320312 110.023438 C 56.273438 110.839844 58.257812 111.574219 60.214844 112.378906 C 62.308594 113.242188 63.59375 114.785156 63.945312 117.046875 C 64.324219 119.449219 63.382812 121.535156 61.484375 122.410156 C 59.949219 123.117188 58.320312 123.234375 56.703125 122.789062 C 52.964844 121.757812 50.449219 119.285156 48.789062 115.859375 C 48.683594 115.636719 48.613281 115.394531 48.523438 115.164062 C 48.464844 115.179688 48.40625 115.191406 48.34375 115.207031 C 48.34375 115.441406 48.34375 115.671875 48.34375 115.90625 C 48.339844 122.253906 48.339844 128.605469 48.328125 134.957031 C 48.324219 136.921875 47.535156 138.433594 45.710938 139.316406 C 45.660156 139.339844 45.613281 139.367188 45.558594 139.398438 Z M 56.09375 139.398438 " fill-opacity="1" fill-rule="nonzero"/></g><g fill="#d26557" fill-opacity="1"><g transform="translate(73.513158, 126.098108)"><g><path d="M 19.0625 -0.375 C 19.65625 -0.375 20.164062 -0.570312 20.59375 -0.96875 C 21.03125 -1.363281 21.257812 -1.84375 21.28125 -2.40625 L 21.28125 -10.71875 L 7.203125 -10.71875 L 7.203125 -2.40625 C 7.234375 -1.84375 7.460938 -1.363281 7.890625 -0.96875 C 8.328125 -0.570312 8.835938 -0.375 9.421875 -0.375 L 9.875 -0.375 L 9.875 0 L 2.09375 0 L 2.09375 -0.375 L 2.5625 -0.375 C 3.164062 -0.375 3.675781 -0.578125 4.09375 -0.984375 C 4.519531 -1.398438 4.742188 -1.882812 4.765625 -2.4375 L 4.765625 -20.4375 C 4.742188 -21 4.515625 -21.484375 4.078125 -21.890625 C 3.648438 -22.296875 3.144531 -22.5 2.5625 -22.5 L 2.09375 -22.5 L 2.09375 -22.890625 L 9.875 -22.890625 L 9.875 -22.5 L 9.421875 -22.5 C 8.835938 -22.5 8.328125 -22.300781 7.890625 -21.90625 C 7.460938 -21.519531 7.234375 -21.046875 7.203125 -20.484375 L 7.203125 -11.859375 L 21.28125 -11.859375 L 21.28125 -20.4375 C 21.28125 -21 21.113281 -21.429688 20.78125 -21.734375 C 20.25 -22.242188 19.675781 -22.5 19.0625 -22.5 L 18.609375 -22.5 L 18.609375 -22.890625 L 26.390625 -22.890625 L 26.390625 -22.5 L 25.9375 -22.5 C 25.351562 -22.5 24.84375 -22.304688 24.40625 -21.921875 C 23.976562 -21.546875 23.75 -21.078125 23.71875 -20.515625 L 23.71875 -2.40625 C 23.75 -1.84375 23.914062 -1.421875 24.21875 -1.140625 C 24.78125 -0.628906 25.351562 -0.375 25.9375 -0.375 L 26.390625 -0.375 L 26.390625 0 L 18.609375 0 L 18.609375 -0.375 Z M 19.0625 -0.375 "/></g></g></g><g fill="#d26557" fill-opacity="1"><g transform="translate(97.882408, 126.098108)"><g/></g></g><g fill="#d26557" fill-opacity="1"><g transform="translate(103.335473, 126.098108)"><g/></g></g><g fill="#d26557" fill-opacity="1"><g transform="translate(108.788538, 126.098108)"><g/></g></g><g fill="#d26557" fill-opacity="1"><g transform="translate(114.241603, 126.098108)"><g/></g></g><g fill="#d26557" fill-opacity="1"><g transform="translate(119.694669, 126.098108)"><g/></g></g><g fill="#d26557" fill-opacity="1"><g transform="translate(125.148996, 126.098108)"><g><path d="M 32.640625 -0.375 L 33.21875 -0.375 L 33.21875 0 L 25.28125 0 L 25.28125 -0.34375 L 25.859375 -0.34375 C 26.242188 -0.34375 26.582031 -0.488281 26.875 -0.78125 C 27.164062 -1.070312 27.285156 -1.421875 27.234375 -1.828125 L 25.25 -17.546875 L 18.046875 -3.359375 C 17.328125 -1.804688 16.878906 -0.507812 16.703125 0.53125 L 16.328125 0.53125 L 7.125 -17.203125 L 5.421875 -1.828125 C 5.367188 -1.453125 5.488281 -1.109375 5.78125 -0.796875 C 6.070312 -0.492188 6.421875 -0.34375 6.828125 -0.34375 L 7.359375 -0.34375 L 7.359375 0 L 0.3125 0 L 0.3125 -0.375 L 0.875 -0.375 C 1.789062 -0.375 2.503906 -0.707031 3.015625 -1.375 C 3.265625 -1.707031 3.414062 -2.101562 3.46875 -2.5625 L 6.453125 -23.421875 L 6.828125 -23.421875 L 16.890625 -4.046875 L 26.625 -23.421875 L 26.96875 -23.421875 L 30.0625 -2.484375 C 30.15625 -1.847656 30.441406 -1.335938 30.921875 -0.953125 C 31.410156 -0.566406 31.984375 -0.375 32.640625 -0.375 Z M 32.640625 -0.375 "/></g></g></g><g fill="#d26557" fill-opacity="1"><g transform="translate(154.550359, 126.098108)"><g><path d="M 2.625 -0.375 C 3.238281 -0.375 3.753906 -0.570312 4.171875 -0.96875 C 4.597656 -1.363281 4.820312 -1.84375 4.84375 -2.40625 L 4.84375 -20.515625 C 4.84375 -21.078125 4.625 -21.546875 4.1875 -21.921875 C 3.757812 -22.304688 3.238281 -22.5 2.625 -22.5 L 2.09375 -22.5 L 2.09375 -22.890625 L 13.234375 -22.890625 C 14.273438 -22.890625 15.1875 -22.960938 15.96875 -23.109375 C 16.757812 -23.265625 17.269531 -23.394531 17.5 -23.5 L 17.5 -19.140625 L 17.09375 -19.1875 L 17.09375 -19.75 C 17.09375 -20.289062 16.910156 -20.75 16.546875 -21.125 C 16.191406 -21.507812 15.738281 -21.703125 15.1875 -21.703125 L 7.25 -21.703125 L 7.25 -12.015625 L 13.765625 -12.015625 C 14.273438 -12.015625 14.660156 -12.164062 14.921875 -12.46875 C 15.191406 -12.769531 15.328125 -13.148438 15.328125 -13.609375 L 15.328125 -14.109375 L 15.75 -14.109375 L 15.75 -8.765625 L 15.328125 -8.765625 L 15.328125 -9.265625 C 15.328125 -9.984375 15.0625 -10.46875 14.53125 -10.71875 C 14.320312 -10.789062 14.109375 -10.84375 13.890625 -10.875 L 7.25 -10.875 L 7.25 -1.1875 L 13.234375 -1.1875 C 14.398438 -1.1875 15.382812 -1.390625 16.1875 -1.796875 C 16.988281 -2.203125 17.597656 -2.679688 18.015625 -3.234375 C 18.441406 -3.796875 18.867188 -4.535156 19.296875 -5.453125 L 19.6875 -5.453125 L 17.578125 0 L 2.09375 0 L 2.09375 -0.375 Z M 2.625 -0.375 "/></g></g></g><path fill="#d26557" d="M 109.132812 116.082031 L 110.402344 116.082031 L 110.402344 114.8125 L 109.132812 114.8125 L 109.132812 116.082031 " fill-opacity="1" fill-rule="nonzero"/><path fill="#d26557" d="M 110.925781 114.8125 L 110.925781 116.082031 L 112.195312 116.082031 L 112.195312 114.8125 L 110.925781 114.8125 " fill-opacity="1" fill-rule="nonzero"/><path fill="#d26557" d="M 109.132812 117.832031 L 110.402344 117.832031 L 110.402344 116.5625 L 109.132812 116.5625 L 109.132812 117.832031 " fill-opacity="1" fill-rule="nonzero"/><path fill="#d26557" d="M 110.925781 117.832031 L 112.195312 117.832031 L 112.195312 116.5625 L 110.925781 116.5625 L 110.925781 117.832031 " fill-opacity="1" fill-rule="nonzero"/><g clip-path="url(#2ba458313f)"><path fill="#e0ab97" d="M 114.109375 101.675781 L 100.8125 114.972656 L 103.324219 117.484375 L 104.335938 116.472656 L 102.835938 114.972656 L 114.109375 103.699219 L 125.382812 114.972656 L 124.03125 116.324219 L 119.503906 111.792969 L 117.6875 113.609375 L 118.71875 114.640625 L 119.503906 113.855469 L 124.011719 118.363281 L 127.402344 114.972656 L 114.109375 101.675781 " fill-opacity="1" fill-rule="nonzero"/></g><g clip-path="url(#3e6687a4dd)"><path fill="#d26557" d="M 122.21875 118.136719 L 118.71875 114.640625 L 117.6875 113.609375 L 115.875 111.792969 L 114.109375 113.558594 L 115.140625 114.589844 L 115.875 113.855469 L 121.183594 119.167969 L 114.109375 126.246094 L 104.335938 116.472656 L 103.324219 117.484375 L 104.355469 118.515625 L 114.109375 128.265625 L 123.226562 119.148438 L 122.21875 118.136719 " fill-opacity="1" fill-rule="nonzero"/></g><path fill="#e0ab97" d="M 106.15625 116.226562 L 106.398438 116.46875 L 110.675781 112.1875 L 119.019531 120.53125 L 120.050781 119.5 L 116.957031 116.40625 L 115.925781 115.371094 L 110.675781 110.125 L 105.367188 115.4375 L 106.15625 116.226562 " fill-opacity="1" fill-rule="nonzero"/><g fill="#28354d" fill-opacity="1"><g transform="translate(60.415551, 102.428931)"><g><path d="M 3.125 -3.734375 C 2.695312 -3.734375 2.304688 -3.832031 1.953125 -4.03125 C 1.609375 -4.238281 1.335938 -4.515625 1.140625 -4.859375 C 0.941406 -5.210938 0.84375 -5.597656 0.84375 -6.015625 C 0.84375 -6.421875 0.941406 -6.796875 1.140625 -7.140625 C 1.335938 -7.492188 1.609375 -7.769531 1.953125 -7.96875 C 2.304688 -8.175781 2.695312 -8.28125 3.125 -8.28125 C 3.539062 -8.28125 3.921875 -8.175781 4.265625 -7.96875 C 4.617188 -7.769531 4.894531 -7.492188 5.09375 -7.140625 C 5.289062 -6.796875 5.390625 -6.421875 5.390625 -6.015625 C 5.390625 -5.597656 5.289062 -5.210938 5.09375 -4.859375 C 4.894531 -4.515625 4.617188 -4.238281 4.265625 -4.03125 C 3.921875 -3.832031 3.539062 -3.734375 3.125 -3.734375 Z M 3.125 -3.734375 "/></g></g></g><g fill="#e0ab97" fill-opacity="1"><g transform="translate(76.315513, 132.949483)"><g><path d="M 2.03125 0 L 2.03125 -1.1875 L 1.453125 -0.203125 L 1.25 -0.203125 L 0.671875 -1.15625 L 0.671875 0 L 0.234375 0 L 0.234375 -1.984375 L 0.609375 -1.984375 L 1.359375 -0.75 L 2.078125 -1.984375 L 2.453125 -1.984375 L 2.46875 0 Z M 2.03125 0 "/></g></g></g><g fill="#e0ab97" fill-opacity="1"><g transform="translate(80.990502, 132.949483)"><g><path d="M 1.109375 0.03125 C 0.828125 0.03125 0.609375 -0.046875 0.453125 -0.203125 C 0.296875 -0.359375 0.21875 -0.582031 0.21875 -0.875 L 0.21875 -1.984375 L 0.671875 -1.984375 L 0.671875 -0.890625 C 0.671875 -0.535156 0.816406 -0.359375 1.109375 -0.359375 C 1.253906 -0.359375 1.363281 -0.398438 1.4375 -0.484375 C 1.519531 -0.566406 1.5625 -0.703125 1.5625 -0.890625 L 1.5625 -1.984375 L 2.015625 -1.984375 L 2.015625 -0.875 C 2.015625 -0.582031 1.929688 -0.359375 1.765625 -0.203125 C 1.609375 -0.046875 1.390625 0.03125 1.109375 0.03125 Z M 1.109375 0.03125 "/></g></g></g><g fill="#e0ab97" fill-opacity="1"><g transform="translate(85.194323, 132.949483)"><g><path d="M 0.890625 0.03125 C 0.734375 0.03125 0.582031 0.0078125 0.4375 -0.03125 C 0.289062 -0.0703125 0.171875 -0.125 0.078125 -0.1875 L 0.234375 -0.546875 C 0.316406 -0.484375 0.414062 -0.429688 0.53125 -0.390625 C 0.65625 -0.347656 0.773438 -0.328125 0.890625 -0.328125 C 1.015625 -0.328125 1.109375 -0.347656 1.171875 -0.390625 C 1.234375 -0.429688 1.265625 -0.484375 1.265625 -0.546875 C 1.265625 -0.585938 1.242188 -0.625 1.203125 -0.65625 C 1.171875 -0.6875 1.125 -0.710938 1.0625 -0.734375 C 1.007812 -0.753906 0.9375 -0.773438 0.84375 -0.796875 C 0.6875 -0.835938 0.5625 -0.875 0.46875 -0.90625 C 0.375 -0.945312 0.289062 -1.003906 0.21875 -1.078125 C 0.15625 -1.160156 0.125 -1.265625 0.125 -1.390625 C 0.125 -1.503906 0.15625 -1.609375 0.21875 -1.703125 C 0.28125 -1.796875 0.375 -1.867188 0.5 -1.921875 C 0.625 -1.984375 0.773438 -2.015625 0.953125 -2.015625 C 1.078125 -2.015625 1.195312 -2 1.3125 -1.96875 C 1.4375 -1.9375 1.546875 -1.894531 1.640625 -1.84375 L 1.5 -1.484375 C 1.3125 -1.585938 1.128906 -1.640625 0.953125 -1.640625 C 0.828125 -1.640625 0.734375 -1.617188 0.671875 -1.578125 C 0.609375 -1.535156 0.578125 -1.484375 0.578125 -1.421875 C 0.578125 -1.347656 0.609375 -1.296875 0.671875 -1.265625 C 0.742188 -1.234375 0.851562 -1.203125 1 -1.171875 C 1.15625 -1.128906 1.28125 -1.09375 1.375 -1.0625 C 1.46875 -1.03125 1.546875 -0.972656 1.609375 -0.890625 C 1.679688 -0.816406 1.71875 -0.710938 1.71875 -0.578125 C 1.71875 -0.460938 1.6875 -0.359375 1.625 -0.265625 C 1.5625 -0.171875 1.46875 -0.0976562 1.34375 -0.046875 C 1.21875 0.00390625 1.066406 0.03125 0.890625 0.03125 Z M 0.890625 0.03125 "/></g></g></g><g fill="#e0ab97" fill-opacity="1"><g transform="translate(88.974938, 132.949483)"><g><path d="M 0.640625 -1.609375 L 0.015625 -1.609375 L 0.015625 -1.984375 L 1.734375 -1.984375 L 1.734375 -1.609375 L 1.109375 -1.609375 L 1.109375 0 L 0.640625 0 Z M 0.640625 -1.609375 "/></g></g></g><g fill="#e0ab97" fill-opacity="1"><g transform="translate(92.699125, 132.949483)"><g/></g></g><g fill="#e0ab97" fill-opacity="1"><g transform="translate(95.478155, 132.949483)"><g><path d="M 2.046875 -1.984375 L 2.046875 0 L 1.59375 0 L 1.59375 -0.8125 L 0.6875 -0.8125 L 0.6875 0 L 0.234375 0 L 0.234375 -1.984375 L 0.6875 -1.984375 L 0.6875 -1.203125 L 1.59375 -1.203125 L 1.59375 -1.984375 Z M 2.046875 -1.984375 "/></g></g></g><g fill="#e0ab97" fill-opacity="1"><g transform="translate(99.738404, 132.949483)"><g><path d="M 1.53125 -0.421875 L 0.625 -0.421875 L 0.4375 0 L -0.03125 0 L 0.859375 -1.984375 L 1.3125 -1.984375 L 2.1875 0 L 1.71875 0 Z M 1.390625 -0.765625 L 1.078125 -1.53125 L 0.765625 -0.765625 Z M 1.390625 -0.765625 "/></g></g></g><g fill="#e0ab97" fill-opacity="1"><g transform="translate(103.880152, 132.949483)"><g><path d="M 2.140625 -1.984375 L 1.28125 0 L 0.828125 0 L -0.03125 -1.984375 L 0.46875 -1.984375 L 1.078125 -0.5625 L 1.6875 -1.984375 Z M 2.140625 -1.984375 "/></g></g></g><g fill="#e0ab97" fill-opacity="1"><g transform="translate(107.965473, 132.949483)"><g><path d="M 1.765625 -0.375 L 1.765625 0 L 0.234375 0 L 0.234375 -1.984375 L 1.734375 -1.984375 L 1.734375 -1.609375 L 0.6875 -1.609375 L 0.6875 -1.1875 L 1.609375 -1.1875 L 1.609375 -0.828125 L 0.6875 -0.828125 L 0.6875 -0.375 Z M 1.765625 -0.375 "/></g></g></g><g fill="#e0ab97" fill-opacity="1"><g transform="translate(111.839194, 132.949483)"><g/></g></g><g fill="#e0ab97" fill-opacity="1"><g transform="translate(114.618225, 132.949483)"><g><path d="M 0.234375 -1.984375 L 0.6875 -1.984375 L 0.6875 0 L 0.234375 0 Z M 0.234375 -1.984375 "/></g></g></g><g fill="#e0ab97" fill-opacity="1"><g transform="translate(117.524218, 132.949483)"><g><path d="M 0.640625 -1.609375 L 0.015625 -1.609375 L 0.015625 -1.984375 L 1.734375 -1.984375 L 1.734375 -1.609375 L 1.109375 -1.609375 L 1.109375 0 L 0.640625 0 Z M 0.640625 -1.609375 "/></g></g></g><g fill="#e0ab97" fill-opacity="1"><g transform="translate(121.248403, 132.949483)"><g><path d="M 0.609375 -0.6875 C 0.609375 -0.78125 0.628906 -0.859375 0.671875 -0.921875 C 0.722656 -0.992188 0.789062 -1.066406 0.875 -1.140625 C 0.9375 -1.203125 0.984375 -1.25 1.015625 -1.28125 C 1.046875 -1.320312 1.0625 -1.367188 1.0625 -1.421875 C 1.0625 -1.484375 1.03125 -1.535156 0.96875 -1.578125 C 0.914062 -1.617188 0.84375 -1.640625 0.75 -1.640625 C 0.65625 -1.640625 0.570312 -1.617188 0.5 -1.578125 C 0.4375 -1.546875 0.382812 -1.5 0.34375 -1.4375 L 0 -1.640625 C 0.0703125 -1.753906 0.175781 -1.84375 0.3125 -1.90625 C 0.445312 -1.976562 0.609375 -2.015625 0.796875 -2.015625 C 1.015625 -2.015625 1.1875 -1.96875 1.3125 -1.875 C 1.445312 -1.78125 1.515625 -1.648438 1.515625 -1.484375 C 1.515625 -1.410156 1.5 -1.34375 1.46875 -1.28125 C 1.445312 -1.226562 1.414062 -1.179688 1.375 -1.140625 C 1.34375 -1.097656 1.296875 -1.050781 1.234375 -1 C 1.171875 -0.9375 1.125 -0.882812 1.09375 -0.84375 C 1.0625 -0.800781 1.046875 -0.75 1.046875 -0.6875 Z M 0.828125 0.015625 C 0.753906 0.015625 0.691406 -0.00390625 0.640625 -0.046875 C 0.585938 -0.0976562 0.5625 -0.160156 0.5625 -0.234375 C 0.5625 -0.304688 0.582031 -0.363281 0.625 -0.40625 C 0.675781 -0.457031 0.742188 -0.484375 0.828125 -0.484375 C 0.910156 -0.484375 0.972656 -0.457031 1.015625 -0.40625 C 1.066406 -0.363281 1.09375 -0.304688 1.09375 -0.234375 C 1.09375 -0.160156 1.066406 -0.0976562 1.015625 -0.046875 C 0.960938 -0.00390625 0.898438 0.015625 0.828125 0.015625 Z M 0.828125 0.015625 "/></g></g></g><g fill="#e0ab97" fill-opacity="1"><g transform="translate(124.890772, 132.949483)"><g/></g></g><g fill="#e0ab97" fill-opacity="1"><g transform="translate(127.669803, 132.949483)"><g><path d="M 3.234375 -1.984375 L 2.578125 0 L 2.09375 0 L 1.65625 -1.34375 L 1.203125 0 L 0.71875 0 L 0.0625 -1.984375 L 0.53125 -1.984375 L 0.984375 -0.59375 L 1.453125 -1.984375 L 1.875 -1.984375 L 2.328125 -0.578125 L 2.78125 -1.984375 Z M 3.234375 -1.984375 "/></g></g></g><g fill="#e0ab97" fill-opacity="1"><g transform="translate(132.931635, 132.949483)"><g><path d="M 1.765625 -0.375 L 1.765625 0 L 0.234375 0 L 0.234375 -1.984375 L 1.734375 -1.984375 L 1.734375 -1.609375 L 0.6875 -1.609375 L 0.6875 -1.1875 L 1.609375 -1.1875 L 1.609375 -0.828125 L 0.6875 -0.828125 L 0.6875 -0.375 Z M 1.765625 -0.375 "/></g></g></g><g fill="#e0ab97" fill-opacity="1"><g transform="translate(136.805359, 132.949483)"><g><path d="M 0.375 -2.125 C 0.445312 -2.125 0.507812 -2.097656 0.5625 -2.046875 C 0.613281 -1.992188 0.640625 -1.925781 0.640625 -1.84375 C 0.640625 -1.8125 0.632812 -1.773438 0.625 -1.734375 C 0.613281 -1.703125 0.597656 -1.644531 0.578125 -1.5625 L 0.40625 -1.15625 L 0.125 -1.15625 L 0.25 -1.609375 C 0.195312 -1.628906 0.15625 -1.660156 0.125 -1.703125 C 0.101562 -1.742188 0.09375 -1.789062 0.09375 -1.84375 C 0.09375 -1.925781 0.117188 -1.992188 0.171875 -2.046875 C 0.222656 -2.097656 0.289062 -2.125 0.375 -2.125 Z M 0.375 -2.125 "/></g></g></g><g fill="#e0ab97" fill-opacity="1"><g transform="translate(139.525142, 132.949483)"><g><path d="M 2.140625 -1.984375 L 1.28125 0 L 0.828125 0 L -0.03125 -1.984375 L 0.46875 -1.984375 L 1.078125 -0.5625 L 1.6875 -1.984375 Z M 2.140625 -1.984375 "/></g></g></g><g fill="#e0ab97" fill-opacity="1"><g transform="translate(143.610466, 132.949483)"><g><path d="M 1.765625 -0.375 L 1.765625 0 L 0.234375 0 L 0.234375 -1.984375 L 1.734375 -1.984375 L 1.734375 -1.609375 L 0.6875 -1.609375 L 0.6875 -1.1875 L 1.609375 -1.1875 L 1.609375 -0.828125 L 0.6875 -0.828125 L 0.6875 -0.375 Z M 1.765625 -0.375 "/></g></g></g><g fill="#e0ab97" fill-opacity="1"><g transform="translate(147.484191, 132.949483)"><g/></g></g><g fill="#e0ab97" fill-opacity="1"><g transform="translate(150.263225, 132.949483)"><g><path d="M 1.578125 -1.015625 L 1.984375 -1.015625 L 1.984375 -0.21875 C 1.878906 -0.132812 1.753906 -0.0703125 1.609375 -0.03125 C 1.472656 0.0078125 1.332031 0.03125 1.1875 0.03125 C 0.976562 0.03125 0.789062 -0.0078125 0.625 -0.09375 C 0.46875 -0.1875 0.34375 -0.3125 0.25 -0.46875 C 0.15625 -0.625 0.109375 -0.796875 0.109375 -0.984375 C 0.109375 -1.179688 0.15625 -1.359375 0.25 -1.515625 C 0.34375 -1.671875 0.472656 -1.789062 0.640625 -1.875 C 0.804688 -1.96875 0.992188 -2.015625 1.203125 -2.015625 C 1.367188 -2.015625 1.523438 -1.984375 1.671875 -1.921875 C 1.816406 -1.867188 1.9375 -1.785156 2.03125 -1.671875 L 1.734375 -1.40625 C 1.585938 -1.550781 1.414062 -1.625 1.21875 -1.625 C 1.09375 -1.625 0.976562 -1.597656 0.875 -1.546875 C 0.78125 -1.492188 0.707031 -1.414062 0.65625 -1.3125 C 0.601562 -1.21875 0.578125 -1.109375 0.578125 -0.984375 C 0.578125 -0.867188 0.601562 -0.757812 0.65625 -0.65625 C 0.707031 -0.5625 0.78125 -0.488281 0.875 -0.4375 C 0.976562 -0.382812 1.09375 -0.359375 1.21875 -0.359375 C 1.34375 -0.359375 1.460938 -0.382812 1.578125 -0.4375 Z M 1.578125 -1.015625 "/></g></g></g><g fill="#e0ab97" fill-opacity="1"><g transform="translate(154.41908, 132.949483)"><g><path d="M 1.1875 0.03125 C 0.988281 0.03125 0.804688 -0.0078125 0.640625 -0.09375 C 0.472656 -0.1875 0.34375 -0.3125 0.25 -0.46875 C 0.15625 -0.625 0.109375 -0.796875 0.109375 -0.984375 C 0.109375 -1.179688 0.15625 -1.359375 0.25 -1.515625 C 0.34375 -1.671875 0.472656 -1.789062 0.640625 -1.875 C 0.804688 -1.96875 0.988281 -2.015625 1.1875 -2.015625 C 1.394531 -2.015625 1.582031 -1.96875 1.75 -1.875 C 1.914062 -1.789062 2.046875 -1.671875 2.140625 -1.515625 C 2.234375 -1.359375 2.28125 -1.179688 2.28125 -0.984375 C 2.28125 -0.796875 2.234375 -0.625 2.140625 -0.46875 C 2.046875 -0.3125 1.914062 -0.1875 1.75 -0.09375 C 1.582031 -0.0078125 1.394531 0.03125 1.1875 0.03125 Z M 1.1875 -0.359375 C 1.3125 -0.359375 1.421875 -0.382812 1.515625 -0.4375 C 1.609375 -0.488281 1.679688 -0.5625 1.734375 -0.65625 C 1.785156 -0.757812 1.8125 -0.867188 1.8125 -0.984375 C 1.8125 -1.109375 1.785156 -1.21875 1.734375 -1.3125 C 1.679688 -1.414062 1.609375 -1.492188 1.515625 -1.546875 C 1.421875 -1.597656 1.3125 -1.625 1.1875 -1.625 C 1.070312 -1.625 0.96875 -1.597656 0.875 -1.546875 C 0.78125 -1.492188 0.707031 -1.414062 0.65625 -1.3125 C 0.601562 -1.21875 0.578125 -1.109375 0.578125 -0.984375 C 0.578125 -0.867188 0.601562 -0.757812 0.65625 -0.65625 C 0.707031 -0.5625 0.78125 -0.488281 0.875 -0.4375 C 0.96875 -0.382812 1.070312 -0.359375 1.1875 -0.359375 Z M 1.1875 -0.359375 "/></g></g></g><g fill="#e0ab97" fill-opacity="1"><g transform="translate(158.780895, 132.949483)"><g><path d="M 0.640625 -1.609375 L 0.015625 -1.609375 L 0.015625 -1.984375 L 1.734375 -1.984375 L 1.734375 -1.609375 L 1.109375 -1.609375 L 1.109375 0 L 0.640625 0 Z M 0.640625 -1.609375 "/></g></g></g><g fill="#e0ab97" fill-opacity="1"><g transform="translate(162.505084, 132.949483)"><g/></g></g><g fill="#e0ab97" fill-opacity="1"><g transform="translate(165.284118, 132.949483)"><g><path d="M 0.234375 -1.984375 L 0.6875 -1.984375 L 0.6875 0 L 0.234375 0 Z M 0.234375 -1.984375 "/></g></g></g><g fill="#e0ab97" fill-opacity="1"><g transform="translate(168.190115, 132.949483)"><g><path d="M 0.640625 -1.609375 L 0.015625 -1.609375 L 0.015625 -1.984375 L 1.734375 -1.984375 L 1.734375 -1.609375 L 1.109375 -1.609375 L 1.109375 0 L 0.640625 0 Z M 0.640625 -1.609375 "/></g></g></g><g fill="#e0ab97" fill-opacity="1"><g transform="translate(171.914304, 132.949483)"><g><path d="M 0.375 0.015625 C 0.289062 0.015625 0.222656 -0.0078125 0.171875 -0.0625 C 0.117188 -0.113281 0.09375 -0.175781 0.09375 -0.25 C 0.09375 -0.332031 0.117188 -0.398438 0.171875 -0.453125 C 0.222656 -0.503906 0.289062 -0.53125 0.375 -0.53125 C 0.445312 -0.53125 0.507812 -0.503906 0.5625 -0.453125 C 0.613281 -0.398438 0.640625 -0.332031 0.640625 -0.25 C 0.640625 -0.175781 0.613281 -0.113281 0.5625 -0.0625 C 0.507812 -0.0078125 0.445312 0.015625 0.375 0.015625 Z M 0.375 0.015625 "/></g></g></g></svg>